<?xml version="1.0" standalone="no"?>
<!DOCTYPE svg PUBLIC "-//W3C//DTD SVG 20010904//EN"
 "http://www.w3.org/TR/2001/REC-SVG-20010904/DTD/svg10.dtd">
<svg version="1.0" xmlns="http://www.w3.org/2000/svg"
 width="1372.000000pt" height="628.000000pt" viewBox="0 0 1372.000000 628.000000"
 preserveAspectRatio="xMidYMid meet">
<metadata>
Created by potrace 1.16, written by Peter Selinger 2001-2019
</metadata>
<g transform="translate(0.000000,628.000000) scale(0.100000,-0.100000)"
fill="#000000" stroke="none">
<path d="M11635 6050 c-27 -5 -78 -9 -112 -9 -34 -1 -63 -5 -65 -10 -1 -5 -82
-19 -178 -31 -96 -12 -177 -25 -180 -29 -6 -7 -90 -26 -190 -43 -36 -5 -67
-14 -70 -18 -3 -4 -47 -17 -99 -28 -52 -11 -97 -26 -101 -32 -7 -11 -66 -31
-140 -48 -14 -3 -29 -11 -35 -17 -5 -7 -28 -16 -50 -21 -22 -4 -42 -8 -45 -9
-3 -1 -20 -6 -37 -10 -18 -4 -33 -11 -33 -16 0 -5 -9 -9 -19 -9 -11 0 -22 -4
-25 -9 -3 -5 -26 -14 -51 -20 -25 -6 -45 -15 -45 -20 0 -10 -39 -27 -52 -23
-5 1 -8 -3 -8 -9 0 -5 -8 -9 -17 -8 -26 4 -60 -10 -67 -26 -3 -9 -18 -15 -35
-15 -16 0 -31 -6 -35 -15 -3 -8 -16 -15 -28 -15 -13 0 -29 -9 -36 -21 -9 -13
-20 -19 -32 -16 -11 3 -24 -1 -31 -9 -6 -8 -18 -14 -25 -14 -8 0 -14 -3 -14
-7 0 -11 -51 -33 -61 -27 -5 3 -9 1 -9 -5 0 -5 -13 -12 -30 -16 -17 -4 -30
-13 -30 -21 0 -9 -4 -12 -10 -9 -5 3 -10 1 -10 -4 0 -6 -8 -11 -18 -11 -27 0
-72 -23 -72 -37 0 -7 -3 -13 -7 -14 -40 -4 -61 -13 -78 -34 -12 -14 -26 -25
-31 -25 -20 0 -69 -29 -84 -50 -8 -11 -22 -20 -30 -20 -26 0 -69 -24 -73 -40
-2 -9 -15 -16 -28 -17 -13 -1 -33 -13 -44 -26 -11 -13 -35 -30 -52 -38 -18 -8
-33 -20 -33 -26 0 -7 -9 -13 -19 -13 -10 0 -21 -7 -25 -15 -3 -8 -12 -15 -19
-15 -8 0 -21 -10 -29 -22 -8 -11 -25 -22 -39 -23 -14 -1 -29 -11 -36 -26 -7
-13 -19 -24 -26 -24 -20 0 -47 -25 -47 -41 0 -15 -15 -19 -23 -6 -2 4 -2 2 -1
-5 3 -11 -24 -28 -39 -24 -11 2 -31 -20 -40 -42 -4 -10 -12 -15 -18 -12 -11 8
-41 -19 -52 -47 -3 -10 -15 -18 -26 -18 -13 0 -21 -8 -23 -22 -2 -15 -13 -24
-35 -30 -17 -5 -46 -24 -64 -43 -19 -19 -37 -35 -41 -35 -14 0 -86 -77 -93
-100 -4 -12 -9 -19 -12 -16 -6 6 -53 -44 -53 -56 0 -5 -9 -8 -20 -8 -11 0 -20
-7 -20 -15 0 -8 -5 -15 -11 -15 -5 0 -14 -12 -20 -27 -5 -16 -27 -39 -49 -52
-23 -14 -45 -39 -56 -62 -9 -22 -23 -39 -31 -39 -7 0 -13 -7 -13 -15 0 -8 -4
-15 -10 -15 -5 0 -10 -5 -10 -11 0 -13 -38 -49 -52 -49 -4 0 -8 -7 -8 -15 0
-8 -11 -22 -24 -30 -22 -15 -40 -48 -37 -68 1 -5 -8 -11 -19 -14 -11 -3 -20
-11 -20 -18 0 -7 -7 -18 -15 -25 -8 -7 -15 -21 -15 -31 0 -11 -6 -19 -13 -19
-8 0 -20 -18 -27 -40 -7 -22 -17 -40 -22 -40 -4 0 -8 -7 -8 -15 0 -8 -4 -15
-9 -15 -5 0 -14 -14 -21 -30 -7 -17 -21 -36 -30 -43 -10 -7 -29 -35 -42 -62
-12 -28 -28 -54 -35 -60 -11 -9 -20 -45 -22 -90 -1 -17 -3 -18 -12 -5 -8 12
-9 10 -4 -7 5 -19 3 -22 -12 -17 -11 4 -14 2 -7 -3 20 -15 23 -42 8 -58 -9 -8
-11 -15 -5 -15 5 0 13 5 16 10 3 6 11 10 16 10 6 0 7 -5 3 -12 -5 -8 -2 -9 11
-4 38 14 323 22 410 11 75 -9 106 3 122 50 7 21 17 42 21 45 11 8 32 48 32 62
0 7 13 25 29 41 16 15 35 41 43 57 7 17 17 30 22 30 13 0 35 32 36 53 0 9 6
17 14 17 8 0 20 16 27 34 7 19 15 33 19 31 3 -2 15 8 26 22 10 15 25 31 32 37
7 6 21 19 30 30 9 10 23 24 30 30 37 32 72 72 72 83 0 6 9 15 20 18 11 3 20
13 20 21 0 8 4 13 8 10 4 -2 14 0 22 5 13 8 13 10 0 19 -12 8 -38 -13 -122
-100 l-108 -111 -27 17 -28 16 24 -20 24 -19 -33 -42 c-18 -22 -38 -41 -43
-41 -6 0 -3 8 5 18 23 27 30 42 19 42 -6 0 -11 -6 -11 -13 0 -8 -11 -20 -25
-27 -14 -7 -23 -16 -20 -18 3 -3 -2 -17 -11 -31 l-15 -26 21 24 c11 13 23 21
26 18 7 -6 -30 -63 -56 -87 -9 -8 -20 -23 -23 -34 -6 -15 -10 -16 -22 -6 -13
11 -14 10 -9 -3 6 -17 -31 -87 -46 -87 -5 0 -14 8 -19 18 -6 9 -11 12 -11 5 0
-21 12 -43 21 -37 11 6 12 -10 2 -20 -4 -4 -15 8 -25 26 -9 18 -17 27 -18 20
0 -7 7 -23 15 -36 15 -22 14 -27 -6 -65 -11 -23 -25 -44 -30 -47 -12 -7 -498
-9 -505 -1 -3 3 -1 14 5 24 10 17 10 17 11 1 0 -10 7 -18 16 -18 11 0 13 6 9
19 -4 15 0 20 16 23 12 2 25 10 27 18 5 13 3 13 -12 1 -16 -13 -16 -12 -4 13
l12 28 18 -22 c21 -26 22 -21 6 31 -14 47 -20 48 -35 9 -6 -16 -16 -30 -21
-30 -5 0 4 29 21 65 17 35 35 61 40 58 6 -3 7 -2 4 4 -3 5 14 41 38 79 25 38
59 93 76 122 34 57 52 67 44 25 l-5 -28 12 28 c7 15 17 27 24 27 6 0 14 7 18
15 7 20 -3 19 -26 -2 -43 -39 -3 33 77 136 21 28 46 51 55 51 13 0 13 -1 0
-10 -13 -9 -12 -12 4 -25 11 -8 22 -12 25 -9 3 3 1 8 -5 12 -20 13 -9 66 19
94 28 29 38 17 11 -13 -15 -16 -14 -17 5 -12 12 3 21 10 21 17 0 6 5 4 10 -4
8 -12 10 -11 10 6 0 11 -5 25 -12 32 -13 13 -15 8 76 120 33 39 66 72 74 72
10 0 10 -4 -2 -16 -22 -22 -20 -31 2 -11 10 10 25 17 32 17 10 0 8 4 -4 13
-16 12 -13 16 28 55 25 24 46 39 46 34 0 -5 -7 -15 -15 -22 -12 -10 -13 -15
-4 -21 9 -5 10 -11 2 -21 -8 -9 -8 -16 1 -24 9 -9 12 -3 13 24 1 20 8 41 17
48 19 13 21 34 4 34 -18 0 17 34 160 157 74 63 136 112 140 109 3 -4 -4 -14
-17 -22 l-22 -16 21 -15 c16 -11 25 -12 33 -4 7 7 6 12 -7 17 -15 6 -15 7 1
21 14 11 15 16 5 20 -10 4 -3 14 20 34 61 53 228 179 237 179 5 0 11 3 13 8 7
15 207 147 393 259 151 91 556 303 650 341 28 11 111 45 185 75 74 31 185 72
245 92 61 20 119 40 130 45 47 20 192 59 244 65 20 2 30 2 24 -1 -25 -11 -13
-23 12 -14 20 7 32 6 50 -6 13 -9 30 -14 37 -12 7 3 -4 13 -24 22 -20 10 -42
15 -47 11 -6 -3 -11 -1 -11 4 0 6 3 12 8 12 38 7 58 11 132 29 299 72 443 89
790 97 366 7 558 -13 790 -83 47 -15 91 -31 98 -36 17 -14 15 -48 -2 -48 -8 0
-17 -4 -21 -9 -3 -5 8 -9 25 -9 21 1 27 4 18 9 -9 6 -6 9 10 9 13 0 20 4 17
10 -4 6 -11 8 -16 5 -5 -4 -9 -1 -9 4 0 6 9 11 20 11 11 0 20 -4 20 -10 0 -5
11 -10 25 -10 17 0 25 -5 24 -17 0 -11 -3 -13 -6 -5 -6 15 -33 16 -33 0 0 -6
3 -9 6 -5 3 3 15 -3 27 -14 11 -10 29 -19 39 -19 18 0 26 -3 85 -34 18 -9 34
-12 37 -7 8 13 43 2 50 -15 3 -8 12 -14 20 -14 22 0 136 -87 199 -153 51 -53
74 -89 47 -72 -5 3 -10 2 -10 -4 0 -5 12 -12 28 -14 l27 -4 -27 -2 c-36 -1
-36 -23 -2 -50 30 -23 58 -28 51 -8 -2 6 -15 12 -28 12 -14 0 -23 5 -21 13 1
6 -3 12 -10 12 -6 0 -8 3 -5 6 4 4 13 1 22 -6 12 -10 15 -10 15 1 0 13 59 -60
60 -73 0 -16 -19 -7 -23 10 -2 9 -3 -4 -3 -30 1 -34 4 -44 13 -37 14 12 27
-20 17 -45 -3 -9 -1 -16 4 -16 18 0 23 36 9 63 -8 15 -17 24 -21 20 -4 -4 -4
1 0 10 8 22 5 25 47 -55 51 -97 81 -195 94 -305 18 -143 -1 -484 -25 -469 -4
2 -8 -14 -9 -35 0 -22 -5 -45 -11 -52 -5 -7 -13 -27 -17 -44 -3 -18 -11 -33
-15 -33 -5 0 -7 -7 -3 -16 4 -10 -1 -17 -15 -21 -11 -3 -23 -12 -26 -20 -3 -8
-10 -12 -15 -9 -5 3 -7 -4 -3 -16 4 -16 2 -19 -8 -13 -9 6 -11 4 -5 -5 4 -7 2
-16 -6 -21 -9 -6 -10 -9 -2 -9 6 0 15 5 18 10 4 6 11 8 16 5 8 -5 14 24 10 48
0 4 3 7 9 7 15 0 12 -15 -16 -83 -48 -116 -102 -222 -135 -267 -29 -39 -33
-42 -40 -25 -5 14 -8 15 -8 4 -1 -8 4 -20 9 -25 8 -8 6 -15 -6 -25 -16 -12
-17 -12 -11 3 3 10 1 20 -5 24 -7 4 -8 3 -4 -5 4 -6 0 -14 -8 -17 -9 -3 -13
-10 -10 -15 3 -5 10 -7 15 -4 5 4 9 1 9 -5 0 -17 -29 -23 -45 -10 -9 7 -18 10
-22 6 -4 -3 3 -13 15 -22 26 -18 28 -32 7 -41 -9 -3 -22 3 -31 13 -14 18 -15
18 -5 -3 9 -17 7 -25 -5 -37 -8 -9 -20 -16 -25 -16 -5 0 -9 -7 -9 -16 0 -11
-6 -14 -22 -10 -13 3 -17 3 -10 0 6 -3 12 -12 12 -19 0 -7 -6 -15 -12 -18 -7
-2 -10 -8 -5 -13 4 -4 15 3 24 16 9 12 27 32 40 43 12 11 23 28 24 36 0 12 2
12 6 3 3 -8 -9 -31 -26 -52 -17 -21 -31 -41 -31 -44 0 -21 -278 -341 -287
-332 -3 3 0 14 7 23 8 10 1 6 -14 -10 -15 -15 -31 -25 -36 -22 -10 6 -25 -14
-16 -22 3 -3 12 0 21 7 30 25 24 3 -7 -26 -21 -20 -29 -23 -25 -11 4 11 3 16
-4 12 -6 -4 -8 -13 -5 -21 5 -14 -101 -117 -199 -192 -33 -26 -76 -61 -95 -79
-19 -18 -40 -33 -45 -33 -6 0 -29 -18 -50 -40 -21 -22 -42 -40 -45 -40 -12 0
9 223 22 231 7 5 8 9 2 9 -6 0 -9 12 -6 29 3 24 8 28 25 23 21 -5 21 -5 5 12
-16 16 -16 18 1 46 10 17 46 62 81 100 45 50 70 70 87 70 14 0 21 4 18 10 -4
6 -11 8 -16 5 -16 -10 -10 1 16 29 23 25 135 170 147 191 4 6 -2 11 -12 12
-11 1 -22 -7 -25 -18 -4 -10 -11 -19 -16 -19 -5 0 -9 -6 -9 -13 0 -13 -19 -40
-67 -93 -13 -14 -23 -29 -23 -34 0 -5 -9 -14 -20 -20 -11 -6 -20 -17 -20 -25
0 -8 -5 -15 -11 -15 -14 0 -48 -41 -49 -57 0 -7 -6 -13 -12 -13 -19 0 -94 -81
-103 -110 -4 -14 -12 -28 -17 -31 -8 -5 -31 -216 -32 -304 -1 -33 3 -41 19
-43 11 -1 30 6 42 18 12 11 25 20 28 20 10 0 75 45 75 53 0 11 38 47 50 47 6
0 10 4 10 9 0 6 14 18 30 28 17 9 30 23 30 30 0 7 5 13 10 13 19 0 80 45 86
63 3 9 10 17 17 17 12 0 87 77 87 90 0 5 12 15 27 22 15 7 30 24 33 38 4 15
15 26 30 30 16 4 26 14 28 28 2 13 8 19 14 16 7 -4 8 -2 4 4 -4 7 -1 12 9 12
9 0 24 13 33 30 9 16 23 30 29 30 7 0 15 11 19 25 3 13 11 23 18 22 6 -1 10 4
8 11 -1 7 5 15 13 18 8 4 15 12 15 20 0 8 5 13 12 12 6 -2 16 12 21 30 7 21
15 31 23 28 8 -3 18 3 24 14 5 10 17 26 26 34 8 9 11 16 5 16 -6 0 -11 5 -11
10 0 6 8 10 17 8 11 -2 20 6 24 22 13 53 22 68 45 78 13 6 26 23 30 37 3 14
10 25 15 25 5 0 9 6 9 14 0 8 4 16 9 18 5 2 11 10 13 18 2 8 11 22 21 31 9 9
17 25 17 37 0 11 7 22 15 26 8 3 15 17 15 30 0 14 6 29 13 33 16 10 33 46 49
103 7 25 18 50 24 57 6 7 15 32 18 56 4 26 14 49 26 57 13 9 20 26 20 45 0 17
4 35 9 40 13 15 31 109 31 165 0 28 5 50 10 50 15 0 13 347 -1 352 -7 2 -14
31 -16 63 -2 33 -9 62 -14 66 -6 3 -9 10 -8 15 6 21 -14 87 -32 105 -10 10
-19 28 -19 39 0 11 -8 28 -17 38 -20 19 -38 54 -48 90 -4 12 -14 22 -23 22
-15 0 -15 2 -2 11 12 8 11 9 -5 7 -14 -2 -21 3 -23 20 -2 12 -8 22 -13 22 -6
0 -8 4 -5 8 7 11 -4 24 -46 52 -20 13 -44 37 -53 52 -9 15 -23 28 -31 28 -8 0
-14 7 -14 16 0 9 -9 18 -20 21 -11 3 -20 9 -20 14 0 5 -9 9 -20 9 -11 0 -20 6
-20 14 0 13 -29 29 -53 31 -5 0 -14 7 -20 16 -7 9 -30 22 -51 30 -21 8 -44 22
-50 32 -6 9 -21 17 -33 17 -12 0 -28 7 -36 15 -8 7 -26 17 -41 21 -14 3 -26
10 -26 15 0 5 -8 9 -18 9 -11 0 -33 7 -50 15 -17 9 -47 17 -67 19 -20 1 -40 7
-43 12 -10 15 -88 35 -147 38 -66 4 -139 17 -145 26 -3 4 -32 11 -65 15 -88
11 -581 14 -640 5z"/>
<path d="M11505 5409 c-114 -4 -222 -15 -330 -33 -88 -15 -172 -25 -188 -22
-15 3 -26 2 -23 -3 3 -5 -48 -23 -114 -40 -341 -91 -661 -205 -865 -309 -185
-95 -282 -138 -282 -126 0 7 4 11 9 8 4 -3 5 2 2 10 -8 20 -24 21 -24 2 0 -16
-34 -31 -50 -21 -5 3 -10 2 -10 -4 0 -6 -8 -8 -17 -5 -10 2 -8 -1 5 -7 17 -9
28 -9 49 0 24 11 25 11 13 -4 -8 -10 -23 -21 -35 -26 -11 -5 -42 -23 -70 -39
-27 -17 -65 -38 -82 -47 -18 -9 -33 -20 -33 -25 0 -4 -4 -8 -10 -8 -15 0 -365
-238 -419 -285 -110 -96 -220 -193 -241 -212 l-25 -23 32 9 c32 9 113 82 113
103 0 6 3 8 6 5 10 -10 62 31 69 53 4 11 12 20 20 20 7 0 22 11 32 25 10 13
29 26 43 29 14 2 24 9 22 15 -1 6 6 11 17 11 10 0 21 9 24 20 3 13 17 22 37
27 20 4 35 13 38 25 5 21 47 43 87 47 8 0 15 6 15 12 0 15 26 39 34 32 3 -4 6
-1 6 6 0 8 6 11 16 7 11 -4 18 1 21 14 3 11 9 17 14 14 5 -3 9 0 9 5 0 6 7 11
15 11 19 0 58 21 68 38 4 6 15 12 22 12 8 0 15 4 15 9 0 5 14 11 31 15 20 4
29 11 26 19 -3 9 10 17 39 25 27 7 44 18 44 27 0 14 12 19 33 16 4 0 7 3 7 9
0 5 18 13 40 16 22 4 40 12 40 19 0 13 51 38 76 38 8 0 14 4 14 8 0 5 6 6 14
3 7 -3 20 1 27 8 26 26 86 58 108 58 11 0 21 4 21 10 0 5 18 15 40 21 22 7 40
16 40 21 0 4 9 8 20 8 11 0 20 5 20 10 0 6 9 10 19 10 11 0 40 9 66 20 26 11
53 20 61 20 8 0 24 9 36 20 12 11 43 23 71 26 28 4 51 13 54 21 5 12 7 12 14
1 6 -8 12 -9 17 -3 10 15 54 36 83 40 13 2 44 7 69 11 25 4 49 13 53 20 4 8
20 14 35 14 15 0 43 5 62 10 19 6 55 13 80 16 25 3 47 10 50 14 3 4 21 10 40
13 19 4 60 11 90 17 30 5 83 13 118 16 34 4 62 11 62 15 0 5 11 9 25 9 14 0
25 -5 25 -12 0 -7 5 -5 13 5 7 10 25 16 47 15 19 0 115 3 213 7 186 7 385 -7
399 -29 6 -8 8 -7 8 2 0 6 7 12 15 12 8 0 15 -4 15 -9 0 -8 22 -12 125 -27 39
-5 85 -22 95 -35 5 -6 69 -23 133 -36 15 -3 27 -11 27 -19 0 -7 19 -18 43 -24
59 -15 87 -28 87 -40 0 -5 6 -10 14 -10 7 0 19 -7 26 -15 7 -8 22 -15 34 -15
21 1 21 1 2 15 -17 13 -18 15 -3 15 9 0 17 5 17 10 0 6 5 10 11 10 8 0 7 -5
-1 -15 -7 -9 -11 -16 -9 -18 40 -23 52 -27 57 -22 4 4 -1 11 -11 17 -13 7 -17
17 -13 34 5 19 2 24 -13 24 -10 0 -21 -6 -24 -13 -3 -8 -19 -14 -39 -13 -28 1
-33 4 -31 24 2 12 -2 22 -8 22 -5 0 -7 -4 -4 -10 10 -16 -17 -12 -50 8 -16 10
-66 33 -110 51 -44 19 -96 40 -115 49 -19 8 -42 15 -50 14 -8 0 -33 5 -55 13
-118 39 -348 55 -650 44z"/>
<path d="M12620 5136 c0 -7 16 -21 36 -31 19 -9 39 -27 44 -41 6 -13 16 -27
24 -30 8 -3 24 -21 35 -40 11 -19 27 -34 35 -34 7 0 17 -11 20 -25 4 -14 11
-25 16 -25 6 0 10 -8 10 -18 0 -9 9 -23 20 -30 11 -7 20 -20 20 -30 0 -10 8
-27 19 -38 10 -12 22 -39 26 -62 4 -23 10 -42 13 -42 15 0 26 -358 12 -375 -5
-6 -12 -38 -14 -71 -2 -32 -5 -64 -5 -71 -1 -6 -7 -18 -14 -25 -15 -15 -37
-86 -37 -118 0 -13 -3 -21 -6 -17 -8 7 -34 -17 -34 -32 0 -6 6 -11 13 -12 6 0
2 -5 -10 -11 -14 -7 -25 -24 -29 -44 -4 -20 -12 -34 -20 -34 -8 0 -17 -13 -20
-30 -4 -16 -11 -30 -16 -30 -5 0 -8 -6 -5 -12 2 -7 -5 -18 -16 -24 -16 -9 -17
-12 -4 -17 10 -4 22 3 32 19 9 14 20 22 25 19 6 -3 7 1 4 9 -3 8 7 33 21 56
22 35 62 116 99 200 8 20 1 -19 -9 -45 -8 -19 -7 -19 12 1 12 12 23 30 26 40
4 18 5 18 6 -1 1 -17 4 -15 16 9 19 35 19 46 2 21 -10 -13 -16 -15 -21 -6 -4
6 -12 9 -17 6 -12 -8 -11 -3 2 32 6 15 15 53 21 83 5 30 14 60 19 66 4 6 7 91
6 190 -3 168 -5 184 -31 259 -16 44 -33 85 -38 92 -5 7 -5 14 2 18 5 3 10 14
9 23 0 14 -2 14 -8 -2 -7 -19 -25 3 -116 141 -5 8 -22 28 -37 43 -27 27 -40
79 -17 65 6 -4 8 -13 5 -20 -2 -7 6 -23 20 -36 13 -12 24 -18 24 -12 0 6 -7
16 -15 23 -9 7 -14 19 -11 26 5 14 -35 44 -59 44 -19 0 -20 -19 0 -26 8 -4 15
-10 15 -16 0 -5 -20 7 -44 26 -47 39 -56 43 -56 22z"/>
<path d="M11742 4962 c-10 -10 -26 -21 -35 -25 -9 -3 -17 -11 -17 -16 0 -5 -9
-12 -20 -16 -21 -7 -85 -67 -93 -89 -3 -7 -19 -20 -36 -27 -17 -8 -31 -18 -31
-23 0 -9 -90 -96 -100 -96 -9 0 -90 -75 -90 -84 0 -14 -30 -37 -41 -31 -6 4
-13 -2 -15 -12 -3 -11 -15 -26 -26 -34 -12 -8 -43 -35 -71 -61 -27 -27 -52
-48 -56 -48 -10 0 -111 -112 -111 -123 0 -6 11 0 25 13 14 13 27 21 30 18 9
-9 -34 -41 -57 -43 -13 -1 -28 -3 -35 -4 -6 0 -14 -9 -17 -18 -3 -10 -19 -26
-36 -35 -16 -9 -30 -24 -30 -33 0 -8 -8 -15 -18 -15 -19 0 -63 -38 -102 -88
-14 -17 -31 -32 -37 -32 -7 0 -13 -7 -13 -15 0 -8 -9 -15 -20 -15 -11 0 -26
-12 -35 -29 -8 -16 -23 -32 -33 -35 -10 -4 -25 -18 -32 -32 -8 -14 -20 -22
-27 -20 -8 4 -17 -5 -23 -19 -5 -14 -15 -25 -21 -25 -6 0 -26 -15 -45 -32 -46
-47 -74 -69 -116 -98 -37 -25 -64 -70 -74 -125 -3 -16 -9 -32 -14 -35 -9 -5
-17 -79 -25 -226 -5 -97 7 -193 28 -206 6 -4 81 -5 165 -1 171 7 318 -8 340
-35 7 -10 12 -11 12 -4 0 7 0 15 0 19 1 14 -99 33 -205 38 -201 10 -280 12
-267 8 16 -6 16 -23 -1 -23 -8 0 -24 21 -37 46 -21 44 -22 54 -16 153 5 58 10
117 12 131 21 144 44 191 127 262 34 29 99 87 144 130 46 43 88 78 94 78 9 0
9 -3 0 -14 -9 -10 -8 -15 3 -19 8 -3 16 2 19 14 3 11 11 17 19 14 9 -4 14 2
14 14 0 19 -2 19 -18 4 -10 -9 -21 -14 -24 -10 -3 3 15 27 41 53 33 33 49 43
55 34 5 -9 9 -9 15 -1 5 9 10 9 21 0 10 -8 14 -8 14 0 0 11 -12 15 -40 12 -13
-1 43 56 157 159 61 56 81 67 36 19 l-42 -44 42 -1 c23 0 36 1 29 3 -6 3 -10
9 -6 14 3 5 0 9 -6 9 -6 0 -8 5 -5 11 4 6 10 8 13 5 3 -3 14 2 25 11 10 10 22
17 26 16 3 -1 5 5 5 13 -1 8 5 14 12 14 15 0 38 46 29 60 -2 4 23 33 58 65 34
32 91 85 127 119 36 34 94 86 129 116 36 30 79 69 96 85 30 28 204 188 229
210 39 34 58 48 52 38 -4 -7 -3 -13 3 -13 5 0 9 9 8 20 -2 25 -12 25 -35 2z"/>
<path d="M12170 4790 c0 -5 -16 -10 -35 -10 -19 0 -35 -4 -35 -8 0 -4 12 -8
27 -7 20 0 28 -6 31 -20 2 -16 1 -17 -7 -5 -5 8 -13 11 -18 7 -10 -11 17 -27
45 -27 24 0 28 -10 10 -28 -9 -9 -7 -12 9 -12 16 0 20 5 16 20 -3 10 -11 25
-19 31 -8 6 -14 19 -14 28 0 9 13 -4 29 -28 l30 -45 -22 -19 c-16 -14 -17 -18
-5 -14 9 3 19 1 22 -6 3 -9 7 -9 13 1 7 9 15 6 33 -14 18 -19 24 -36 24 -66
-1 -22 -5 -43 -10 -47 -5 -3 -14 -15 -20 -26 -6 -11 -21 -20 -32 -20 -11 0
-24 -4 -28 -8 -5 -4 -1 -5 9 -1 24 9 21 -4 -5 -27 -29 -23 -42 -24 -34 -2 4
10 3 14 -1 9 -4 -4 -8 -18 -8 -29 0 -15 -6 -22 -17 -21 -10 1 -16 -2 -13 -6 3
-5 -20 -31 -51 -58 -51 -45 -60 -50 -92 -45 -33 6 -35 5 -29 -19 6 -22 -2 -36
-56 -90 -73 -74 -121 -110 -132 -100 -5 4 -5 2 -2 -4 8 -15 -77 -99 -157 -153
-20 -14 -21 -14 -3 5 9 12 17 25 17 30 0 5 -5 1 -11 -8 -6 -11 -22 -18 -38
-18 -16 0 -35 -8 -42 -17 -13 -16 -12 -17 3 -4 19 14 48 9 48 -9 0 -7 -8 -9
-20 -5 -12 4 -20 2 -20 -5 0 -6 6 -8 13 -4 6 4 3 -3 -8 -17 -26 -32 -37 -39
-49 -32 -5 3 -6 1 -3 -4 9 -15 -29 -47 -45 -37 -7 4 -10 3 -5 -1 8 -9 -60 -85
-77 -85 -6 0 -5 5 2 12 7 7 12 16 12 21 0 5 -7 1 -16 -7 -8 -9 -13 -20 -9 -25
3 -5 -20 -30 -51 -55 l-56 -46 44 0 c53 0 202 -36 206 -50 2 -6 11 -10 20 -10
30 0 82 -38 76 -55 -4 -8 -2 -15 4 -15 6 0 12 4 14 10 2 5 14 0 28 -11 17 -14
19 -19 7 -15 -11 4 -16 2 -12 -5 4 -6 13 -8 20 -5 7 2 23 -3 34 -12 11 -9 29
-24 39 -32 11 -8 42 -44 70 -79 44 -54 50 -67 41 -84 -8 -14 -8 -22 1 -27 6
-4 11 -10 11 -14 -2 -23 14 -66 25 -66 8 0 14 5 14 10 0 6 -4 10 -10 10 -5 0
-7 7 -4 15 4 8 1 15 -5 15 -6 0 -11 7 -11 15 0 34 18 10 53 -72 48 -111 105
-423 78 -423 -6 0 -10 3 -10 8 4 26 -1 32 -20 20 -11 -7 -17 -16 -14 -21 2 -4
7 -49 10 -100 6 -127 23 -137 23 -13 0 64 3 95 10 91 12 -7 6 -181 -11 -312
-9 -66 -15 -83 -28 -84 -10 0 -11 -2 -3 -6 17 -7 15 -24 -12 -133 -29 -111
-80 -244 -95 -246 -6 -1 -15 -2 -20 -3 -5 0 -11 -10 -13 -21 -2 -12 -7 -20
-12 -20 -11 2 -26 -22 -20 -32 11 -18 26 -6 44 35 11 23 20 34 20 24 0 -28
-102 -227 -113 -220 -5 3 -7 1 -3 -5 9 -15 -9 -53 -73 -152 -71 -110 -121
-171 -134 -163 -6 3 -7 1 -3 -6 7 -12 -63 -106 -72 -96 -3 3 3 14 13 26 15 16
16 22 6 28 -8 6 -9 11 -3 15 6 3 12 2 14 -4 2 -5 9 -6 17 -1 8 5 11 16 7 26
-6 15 -7 15 -23 0 -15 -15 -17 -15 -25 -1 -5 9 -14 16 -19 16 -6 0 -4 -7 4
-15 17 -16 12 -55 -7 -55 -7 0 -7 -3 -1 -8 14 -10 12 -44 -3 -60 -7 -8 -24
-29 -39 -48 -14 -19 -28 -32 -31 -30 -2 3 13 26 33 51 43 52 43 70 1 26 -17
-18 -35 -27 -45 -24 -12 4 -13 3 -2 -5 9 -7 10 -12 2 -16 -6 -4 -11 -21 -11
-38 0 -25 -12 -43 -55 -85 -32 -32 -60 -51 -67 -47 -7 4 -8 3 -4 -5 8 -13 -9
-30 -111 -112 -35 -27 -63 -46 -63 -41 0 4 5 13 11 19 8 8 6 11 -7 10 -11 -1
-27 -10 -36 -20 -9 -10 -19 -17 -21 -15 -3 2 -9 -1 -14 -6 -5 -5 6 -6 26 -2
l34 6 -44 -35 c-24 -19 -48 -35 -54 -35 -5 0 4 11 20 25 22 18 26 24 13 25 -9
0 -24 -7 -32 -16 -9 -8 -20 -13 -25 -9 -5 3 -12 1 -16 -5 -3 -5 1 -10 9 -10
20 0 20 -14 1 -30 -12 -10 -16 -9 -21 4 -10 27 -26 18 -20 -12 6 -25 1 -30
-56 -67 -113 -71 -162 -100 -200 -118 -20 -10 -40 -22 -43 -27 -9 -14 9 -12
23 2 7 7 12 9 12 5 0 -9 59 21 77 39 8 7 31 18 52 24 25 6 41 17 44 30 3 12
11 18 19 15 8 -3 23 4 35 15 12 11 29 20 37 20 7 0 17 7 20 15 3 9 18 20 34
26 15 5 32 19 37 31 6 12 28 28 51 36 22 8 45 24 50 35 5 11 18 25 29 31 11 6
22 14 25 17 3 3 20 14 38 23 18 9 37 28 42 42 5 13 20 28 33 33 12 5 29 20 36
35 8 14 22 28 33 32 10 3 18 11 18 19 0 8 8 16 18 19 10 3 24 16 32 28 8 12
39 45 68 73 28 29 52 56 52 60 0 4 11 18 25 31 14 13 25 27 25 31 0 5 9 14 20
21 11 7 20 21 20 32 0 11 7 20 15 20 16 0 37 35 39 65 1 11 8 20 16 20 14 0
35 31 32 47 -1 4 6 9 16 12 20 7 57 79 55 106 -1 11 3 17 11 14 7 -3 18 11 26
33 14 37 17 45 19 71 0 6 8 12 16 12 14 0 20 17 16 48 -1 6 2 12 7 12 6 0 13
20 16 45 5 29 14 49 26 55 11 6 27 35 37 68 9 31 20 59 23 62 9 7 38 117 46
175 4 28 11 53 16 56 5 3 14 91 20 194 12 199 -1 482 -23 495 -5 4 -15 38 -20
76 -6 38 -15 73 -20 78 -5 6 -9 19 -9 31 0 11 -9 27 -20 35 -11 8 -20 25 -20
37 0 13 -4 23 -10 23 -5 0 -10 9 -10 20 0 11 -7 20 -15 20 -8 0 -15 6 -15 14
0 7 -11 25 -25 40 -14 16 -33 39 -42 52 -8 13 -20 24 -25 24 -13 0 -33 21 -41
43 -3 9 -15 17 -25 17 -10 0 -25 11 -32 25 -7 14 -21 25 -30 25 -9 0 -25 9
-35 20 -10 11 -24 20 -32 20 -7 0 -13 4 -13 10 0 14 -94 39 -172 47 -50 4 -68
10 -68 20 0 8 9 17 20 20 11 3 20 9 20 14 0 5 7 9 15 9 8 0 15 4 15 9 0 5 9
13 20 16 11 3 20 13 20 21 0 8 8 14 18 14 10 0 25 13 35 29 9 16 25 28 34 27
10 0 18 6 18 14 0 8 12 21 28 29 15 7 27 20 27 28 0 8 13 19 30 24 16 6 36 23
43 37 7 15 20 26 28 25 8 -2 23 11 32 27 10 17 24 30 31 30 7 0 35 20 62 45
27 24 54 45 60 45 11 0 26 24 28 44 1 5 8 10 16 11 18 3 90 72 90 87 0 5 14
14 30 19 17 6 30 17 30 25 0 8 5 14 10 14 6 0 10 7 10 15 0 8 7 15 16 15 9 0
27 10 39 23 32 30 53 47 62 48 4 0 18 12 31 27 12 15 36 42 52 61 24 27 30 42
30 81 0 39 -5 54 -29 79 -17 18 -33 42 -37 54 -4 11 -12 26 -18 32 -6 7 -20
24 -31 38 -20 27 -45 36 -45 17z"/>
<path d="M10830 3110 c0 -6 -7 -10 -15 -10 -8 0 -15 -4 -15 -8 0 -11 55 -42
74 -42 8 0 20 -9 26 -20 6 -11 15 -20 21 -20 6 0 26 -16 45 -35 18 -19 40 -35
49 -35 8 0 15 -9 15 -20 0 -13 10 -24 25 -30 17 -6 27 -20 31 -40 4 -16 12
-30 18 -30 6 0 20 -30 30 -67 28 -101 34 -340 11 -458 -10 -50 -18 -100 -19
-113 -1 -12 -6 -26 -12 -30 -12 -8 -26 -53 -28 -91 -1 -14 -7 -26 -14 -29 -7
-2 -12 -10 -12 -18 0 -8 -4 -14 -9 -14 -5 0 -19 -26 -31 -57 -12 -31 -30 -63
-41 -71 -10 -7 -19 -22 -19 -33 0 -10 -4 -19 -10 -19 -5 0 -10 -7 -10 -15 0
-8 -5 -15 -10 -15 -6 0 -18 -16 -27 -35 -9 -19 -23 -35 -30 -35 -7 0 -13 -7
-13 -15 0 -8 -4 -15 -8 -15 -5 0 -15 -11 -22 -25 -7 -14 -18 -25 -24 -25 -6 0
-17 -13 -24 -30 -8 -16 -19 -30 -25 -30 -6 0 -28 -18 -48 -40 -21 -22 -42 -40
-48 -40 -6 0 -11 -4 -11 -10 0 -5 -7 -10 -15 -10 -8 0 -15 -6 -15 -14 0 -7
-14 -19 -31 -26 -17 -7 -35 -24 -40 -37 -5 -13 -13 -21 -19 -18 -5 3 -10 1
-10 -4 0 -6 -7 -11 -15 -11 -8 0 -15 -6 -15 -14 0 -8 -14 -17 -31 -21 -18 -4
-35 -16 -41 -30 -7 -16 -26 -28 -56 -37 -25 -7 -50 -21 -56 -31 -6 -9 -18 -17
-26 -17 -8 0 -26 -9 -40 -20 -14 -11 -31 -20 -37 -20 -7 0 -13 -3 -13 -7 0 -9
-69 -38 -112 -49 -16 -3 -28 -12 -28 -20 0 -8 -10 -14 -24 -14 -14 0 -27 -4
-30 -9 -3 -4 -23 -11 -45 -14 -22 -3 -47 -11 -55 -19 -8 -8 -49 -23 -92 -33
-44 -10 -84 -25 -90 -34 -7 -9 -29 -16 -50 -17 -63 -3 -209 -27 -214 -35 -9
-13 -474 -13 -478 0 -5 15 -29 14 -35 -1 -4 -10 -6 -10 -6 0 -1 7 -15 12 -33
12 -18 0 -55 7 -82 15 -26 8 -52 13 -56 10 -4 -2 -16 4 -27 14 -11 11 -45 27
-77 37 -31 10 -56 24 -56 31 0 17 -17 17 -23 1 -4 -10 -6 -9 -6 1 -1 19 -32
40 -58 41 -13 0 -23 6 -23 14 0 14 -33 37 -72 52 -20 7 -24 24 -7 24 7 0 -1
10 -17 22 -41 31 -84 76 -84 87 0 6 -11 21 -25 35 -13 13 -27 36 -31 50 -3 14
-12 26 -19 26 -8 0 -16 18 -20 43 -13 86 -30 106 -91 107 -12 0 -31 -9 -43
-19 -12 -10 -36 -19 -54 -19 -18 -1 -84 -6 -147 -12 -63 -6 -160 -14 -215 -17
-55 -3 -104 -11 -108 -17 -6 -8 -10 -8 -14 2 -6 16 -80 16 -86 0 -4 -10 -8
-10 -15 1 -8 11 -11 9 -17 -8 -7 -24 11 -91 26 -91 5 0 9 -7 9 -15 0 -8 -6
-15 -12 -15 -9 0 -8 -3 2 -10 8 -5 16 -20 16 -32 1 -13 5 -34 8 -48 22 -98 29
-120 35 -120 4 0 16 -27 26 -61 10 -34 25 -63 32 -66 7 -3 13 -16 13 -29 0
-13 5 -24 11 -24 5 0 7 -5 4 -11 -7 -11 22 -49 37 -49 4 0 1 16 -7 36 -19 46
-19 47 3 35 15 -8 17 -4 13 35 -2 36 0 44 14 44 15 0 16 -9 12 -71 -3 -41 -1
-66 3 -58 10 15 12 14 28 -16 11 -19 11 -18 12 7 0 50 9 58 61 58 42 0 49 3
49 20 0 11 -6 20 -14 20 -8 0 -17 10 -19 23 l-4 22 -2 -22 c-1 -16 -7 -23 -21
-23 -11 0 -20 -4 -20 -10 0 -5 -9 -10 -20 -10 -18 0 -20 7 -20 70 0 56 -3 70
-15 70 -11 0 -15 11 -15 39 0 33 -4 40 -25 45 -14 4 -25 14 -25 22 0 11 -5 14
-16 10 -8 -3 -25 -1 -36 5 -24 13 -24 13 -32 -31 -6 -28 -5 -32 4 -20 10 13
11 13 7 -1 -8 -24 16 -84 32 -84 8 0 15 -6 17 -13 1 -7 0 -8 -3 -2 -2 5 -9 10
-14 10 -9 0 -1 -58 11 -75 12 -18 20 -45 12 -45 -5 0 -14 17 -21 38 -7 20 -21
55 -31 77 -23 54 -57 152 -65 195 -7 30 -6 33 8 22 10 -9 17 -10 22 -2 3 5 1
10 -4 10 -6 0 -11 4 -11 10 0 15 28 1 35 -18 3 -9 1 -18 -4 -20 -6 -2 -11 -11
-11 -20 0 -12 3 -13 12 -4 7 7 20 12 30 12 10 0 18 5 18 11 0 11 31 8 98 -8
12 -3 22 -1 22 5 0 5 -18 12 -40 16 -53 8 -51 23 5 28 32 2 46 -1 50 -11 4
-11 8 -12 17 -3 21 21 41 14 36 -12 -6 -29 8 -37 60 -35 31 2 32 3 10 6 -16 2
-28 9 -28 14 0 5 -6 9 -14 9 -9 0 -3 11 16 30 16 16 34 30 39 30 5 0 9 5 9 10
0 6 9 10 20 10 27 0 38 46 16 68 -12 13 -18 14 -28 4 -7 -7 -17 -12 -22 -12
-6 0 -4 5 4 10 12 8 8 10 -15 11 -34 1 102 25 185 33 30 2 63 8 73 11 10 4 17
3 17 -4 0 -6 -10 -11 -22 -11 -13 0 -42 -6 -66 -13 -38 -12 -42 -15 -28 -26
12 -10 16 -10 16 -2 0 8 8 10 21 6 13 -4 19 -3 16 2 -4 6 4 8 19 5 14 -2 21
-8 15 -11 -6 -4 5 -7 24 -8 19 -1 35 3 35 8 0 5 -9 9 -19 9 -11 0 -22 4 -25 9
-4 5 5 8 19 6 27 -2 31 5 14 22 -7 7 -4 12 10 16 14 3 21 0 21 -9 0 -8 4 -14
10 -14 5 0 13 -12 16 -27 4 -16 12 -31 17 -35 7 -4 7 -11 -1 -21 -10 -12 -10
-15 4 -13 10 0 25 -15 38 -40 34 -66 90 -135 160 -198 64 -57 129 -106 141
-106 3 0 19 -10 36 -22 16 -12 53 -32 81 -43 50 -20 75 -45 44 -45 -8 0 -18
-4 -21 -10 -10 -16 32 -12 48 4 12 13 20 13 53 1 21 -8 55 -14 74 -15 19 0 46
-8 60 -16 14 -8 17 -13 8 -10 -10 3 -18 1 -18 -4 0 -6 14 -10 30 -10 17 0 30
4 30 8 0 5 106 8 235 8 129 -1 235 -4 235 -8 0 -5 5 -8 10 -8 6 0 10 6 10 14
0 9 25 17 83 26 45 7 89 16 97 20 8 4 32 10 53 14 30 6 37 4 37 -9 0 -8 7 -15
16 -15 11 0 15 6 11 19 -4 16 6 23 57 41 33 11 69 25 78 30 10 6 22 10 27 10
5 0 38 13 73 29 35 16 74 32 87 36 14 4 38 16 55 26 38 23 50 24 42 3 -3 -8
-2 -12 4 -9 6 3 10 12 10 19 0 7 12 19 28 27 15 7 45 25 67 40 22 14 59 36 81
47 23 12 48 27 55 35 8 7 32 24 54 37 22 13 42 27 45 30 3 4 37 33 75 65 91
77 142 123 173 157 18 20 29 25 38 17 16 -13 70 -5 67 10 -2 6 0 10 5 10 19
-3 25 2 12 11 -12 8 -13 12 -2 19 11 7 11 9 -2 14 -15 6 -71 -35 -64 -46 2 -3
0 -8 -3 -12 -4 -3 -10 -2 -13 3 -3 5 17 35 44 66 145 165 241 343 300 551 33
118 44 317 25 457 -6 40 -4 49 5 43 9 -5 11 -4 6 4 -4 6 -12 9 -17 6 -5 -4 -9
0 -9 9 0 29 -65 140 -114 193 -49 54 -68 69 -170 135 -27 18 -44 34 -37 36 6
2 18 -2 26 -8 8 -7 15 -8 15 -3 0 5 -11 15 -25 21 -15 7 -25 8 -25 2z"/>
<path d="M7724 805 c21 -52 21 -51 0 -33 -12 11 -24 14 -33 9 -10 -7 -9 -10 8
-16 12 -3 21 -12 20 -18 -4 -20 23 -67 38 -67 7 0 13 -7 13 -15 0 -8 7 -15 15
-15 8 0 15 -9 15 -19 0 -11 9 -22 19 -26 11 -3 23 -15 26 -26 4 -10 13 -19 21
-19 8 0 14 -4 14 -9 0 -11 79 -91 88 -90 20 3 32 -2 32 -14 0 -6 14 -18 30
-25 17 -8 30 -19 30 -25 0 -7 19 -21 42 -32 23 -11 47 -26 55 -33 7 -7 23 -15
35 -17 12 -3 24 -9 27 -13 3 -5 16 -12 29 -16 12 -4 22 -11 22 -16 0 -5 23
-12 51 -16 28 -4 56 -13 64 -20 7 -8 25 -14 39 -14 14 0 26 -4 26 -10 0 -5 11
-10 25 -10 14 0 25 -4 25 -9 0 -5 10 -9 23 -9 49 -2 172 -26 179 -35 4 -6 12
-4 22 5 13 14 7 17 -62 28 -95 15 -257 61 -297 84 l-30 17 30 -7 c56 -12 94
-14 99 -5 10 15 -12 23 -32 12 -11 -6 -24 -6 -33 0 -11 7 -10 9 6 10 15 0 11
4 -13 15 -31 14 -34 13 -52 -8 l-18 -23 -68 35 c-131 66 -205 115 -307 203
-49 42 -168 179 -162 186 3 2 19 -11 35 -30 l29 -34 0 35 c0 19 -3 29 -6 23
-7 -18 -23 -16 -23 2 0 9 -7 18 -15 21 -9 4 -15 19 -15 35 0 16 -5 29 -11 29
-6 0 -8 9 -3 23 6 21 6 21 -14 -3 l-21 -25 -1 23 c0 12 -5 22 -11 22 -6 0 -8
-7 -5 -15z"/>
<path d="M10535 512 c-6 -5 -29 -17 -53 -27 -37 -16 -45 -17 -54 -4 -8 11 -9
10 -4 -4 4 -12 0 -20 -12 -23 -9 -3 -25 -10 -34 -15 -23 -12 -41 -12 -33 1 3
6 -1 10 -9 10 -9 0 -16 5 -16 10 0 19 -16 10 -17 -10 -1 -12 4 -20 13 -20 72
0 -243 -121 -428 -164 -28 -6 -40 8 -15 18 10 4 -11 2 -43 -3 -3 -1 1 -5 9
-10 34 -21 -50 -41 -432 -102 -123 -19 -167 -21 -398 -17 -142 2 -259 1 -259
-3 0 -18 32 -20 284 -20 255 -1 375 6 386 21 3 3 64 14 135 24 198 26 205 28
205 36 0 4 21 10 46 14 73 10 184 39 184 48 0 4 13 8 29 8 16 0 31 5 33 10 2
6 31 16 66 23 34 6 62 17 62 23 0 7 21 15 48 19 49 7 77 19 100 42 7 7 25 15
40 18 63 13 102 29 102 42 0 7 9 13 20 13 23 0 70 28 70 41 0 11 -13 12 -25 1z"/>
</g>
</svg>
